<?xml version="1.0" standalone="no"?>
<!DOCTYPE svg PUBLIC "-//W3C//DTD SVG 20010904//EN"
 "http://www.w3.org/TR/2001/REC-SVG-20010904/DTD/svg10.dtd">
<svg version="1.0" xmlns="http://www.w3.org/2000/svg"
 width="100pt" height="50pt" viewBox="0 0 1000.000000 403.000000"
 preserveAspectRatio="xMidYMid meet">

<g transform="translate(0.000000,403.000000) scale(0.100000,-0.100000)"
fill="#000000" stroke="none">
<path d="M8227 3813 c-4 -120 -7 -255 -7 -300 l0 -83 570 0 570 0 0 -950 0
-950 208 0 209 0 39 28 c58 42 109 104 146 174 l33 63 3 1118 2 1117 -883 0
-884 0 -6 -217z"/>
<path d="M221 3960 c-72 -35 -171 -108 -200 -149 -21 -29 -21 -35 -21 -1144
l0 -1115 278 -6 c152 -3 564 -9 915 -12 l637 -6 0 299 0 300 -322 6 c-178 4
-393 7 -479 7 -86 0 -184 3 -218 6 l-61 7 0 908 0 907 -62 6 c-35 3 -140 7
-234 10 l-171 5 -62 -29z"/>
<path d="M6710 3941 c-93 -29 -178 -102 -217 -188 l-26 -55 2 -512 c0 -281 4
-769 7 -1083 l7 -573 309 0 308 0 0 1210 0 1210 -182 -1 c-101 0 -194 -4 -208
-8z"/>
<path d="M3750 3910 c-526 -5 -547 -6 -590 -26 -63 -29 -107 -69 -140 -128
-30 -51 -30 -51 -30 -223 l0 -173 590 0 c568 0 591 -1 644 -20 37 -14 69 -36
101 -71 81 -87 79 -70 79 -539 1 -477 -1 -495 -77 -577 -81 -88 -37 -83 -712
-83 l-595 0 0 -280 0 -280 723 0 723 0 81 39 c91 44 142 79 216 148 122 114
208 241 254 378 l27 80 4 556 3 555 -25 68 c-57 152 -175 309 -305 408 -113
85 -341 184 -407 176 -11 -1 -264 -5 -564 -8z"/>
<path d="M530 882 l0 -30 83 -6 c45 -4 105 -7 132 -9 l50 -2 -4 -302 -3 -303
31 0 31 0 0 305 0 306 165 -3 165 -3 0 33 0 32 -248 0 c-137 0 -283 3 -325 6
l-77 7 0 -31z"/>
<path d="M8520 889 c-132 -59 -209 -222 -181 -380 23 -132 105 -246 194 -270
52 -14 165 -14 202 1 16 6 39 19 49 28 24 21 76 92 76 104 0 4 -16 8 -35 8
-27 0 -44 -8 -70 -35 -47 -47 -99 -61 -162 -46 -100 26 -159 108 -170 239 -8
100 15 171 75 231 82 82 177 87 252 15 27 -26 44 -34 72 -34 31 0 35 3 31 19
-9 34 -71 98 -116 120 -58 28 -155 28 -217 0z"/>
<path d="M7 893 c-4 -3 -7 -154 -7 -335 l0 -328 30 0 30 0 0 335 0 335 -23 0
c-13 0 -27 -3 -30 -7z"/>
<path d="M2766 865 c-22 -8 -51 -22 -64 -32 -84 -62 -81 -211 4 -268 17 -12
69 -31 115 -43 146 -39 190 -78 175 -156 -8 -44 -38 -73 -86 -86 -74 -20 -147
5 -217 73 l-43 41 0 -41 c0 -35 6 -46 37 -73 52 -46 92 -60 171 -60 124 0 193
54 200 157 3 48 0 64 -20 93 -28 42 -99 79 -218 115 -99 30 -120 49 -120 110
0 55 33 97 96 121 53 20 104 10 153 -32 21 -17 40 -24 58 -22 l28 3 -45 46
c-64 66 -140 84 -224 54z"/>
<path d="M5201 873 l-44 -4 6 -127 c4 -70 7 -220 7 -334 l0 -208 35 0 35 0 0
145 0 145 60 2 c33 0 65 1 71 2 6 1 33 -61 59 -137 26 -76 50 -140 53 -143 10
-11 77 -16 77 -6 0 5 -23 72 -50 147 -28 76 -50 138 -48 139 2 1 16 8 31 16
46 23 57 57 57 175 0 173 -23 196 -197 193 -59 -1 -128 -3 -152 -5z m267 -85
c18 -18 16 -169 -2 -194 -12 -16 -29 -19 -120 -22 l-106 -4 0 116 0 116 108 0
c71 0 112 -4 120 -12z"/>
<path d="M7500 544 l0 -335 28 3 27 3 3 333 2 332 -30 0 -30 0 0 -336z"/>
<path d="M6676 860 l-39 -5 -96 -227 c-52 -126 -98 -228 -101 -228 -4 0 -46
100 -95 223 -48 122 -91 226 -95 230 -4 5 -25 7 -48 5 l-40 -3 129 -310 c71
-171 133 -319 137 -329 6 -15 41 58 151 313 78 183 141 334 139 335 -2 1 -21
-1 -42 -4z"/>
<path d="M3860 540 l0 -320 185 0 185 0 0 40 0 40 -162 0 -163 0 3 110 3 110
165 0 164 0 0 35 0 35 -165 0 -165 0 0 105 0 105 165 0 165 0 0 30 0 30 -190
0 -190 0 0 -320z"/>
<path d="M9620 540 l0 -320 185 0 185 0 0 38 0 37 -160 -3 -160 -3 0 110 0
111 163 2 162 3 0 35 0 35 -162 3 -163 2 0 105 0 105 165 0 165 0 0 30 0 30
-190 0 -190 0 0 -320z"/>
<path d="M1680 580 l0 -30 240 0 240 0 0 30 0 30 -240 0 -240 0 0 -30z"/>
</g>
</svg>
